name analog
datacolumns 19
datarows 18
range 0.0 0.0085
endheader
time	ground_force_vx	ground_force_vy	ground_force_vz	ground_force_px	ground_force_py	ground_force_pz	l_ground_force_vx	l_ground_force_vy	l_ground_force_vz	l_ground_force_px	l_ground_force_py	l_ground_force_pz	ground_torque_x	ground_torque_y	ground_torque_z	l_ground_torque_x	l_ground_torque_y	l_ground_torque_z
0.0	-0.0	-0.0	-0.0	1.9743276834487915	33.11779022216797	-410.0881958007813	-2.2678029537200928	-54.70963287353516	-494.3092956542969	-0.0	-0.0	-0.0	-0.0	-0.0	-0.0	128645.109375	20320.1796875	-6953.09716796875
0.0005	-0.0	-0.0	-0.0	2.8010964393615723	32.68716812133789	-409.5479431152344	-3.0046515464782715	-55.00148391723633	-493.8976440429688	-0.0	-0.0	-0.0	-0.0	-0.0	-0.0	128520.8125	20537.171875	-7068.44775390625
0.001	-0.0	-0.0	-0.0	2.8041603565216064	32.773319244384766	-409.3939514160156	-2.80018949508667	-55.05905532836914	-492.4407653808594	-0.0	-0.0	-0.0	-0.0	-0.0	-0.0	128035.140625	20755.404296875	-7135.345703125
0.0015	-0.0	-0.0	-0.0	2.7269716262817383	32.72294998168945	-409.8324890136719	-3.2587811946868896	-55.18616485595703	-491.7569274902344	-0.0	-0.0	-0.0	-0.0	-0.0	-0.0	128087.8125	20793.5	-7322.6220703125
0.002	-0.0	-0.0	-0.0	3.351506233215332	32.78595733642578	-409.3839416503906	-3.2320034503936768	-55.3157958984375	-491.50103759765625	-0.0	-0.0	-0.0	-0.0	-0.0	-0.0	127406.1796875	20979.28125	-7272.12060546875
0.0025	-0.0	-0.0	-0.0	3.8114359378814697	33.068904876708984	-408.1298522949219	-3.8120813369750977	-55.58063507080078	-489.9636535644531	-0.0	-0.0	-0.0	-0.0	-0.0	-0.0	127496.625	21262.869140625	-7470.50390625
0.003	-0.0	-0.0	-0.0	3.8609888553619385	32.661033630371094	-409.18365478515625	-3.750099420547485	-55.8574333190918	-488.7092590332031	-0.0	-0.0	-0.0	-0.0	-0.0	-0.0	127143.3828125	21332.09765625	-7610.84912109375
0.0035	-0.0	-0.0	-0.0	3.581644058227539	32.621726989746094	-410.2433471679688	-4.028606414794922	-55.971641540527344	-489.7091674804688	-0.0	-0.0	-0.0	-0.0	-0.0	-0.0	126989.8359375	21700.197265625	-7657.61328125
0.004	-0.0	-0.0	-0.0	3.78486704826355	32.44346618652344	-410.19342041015625	-4.600631713867188	-56.46211242675781	-489.0158386230469	-0.0	-0.0	-0.0	-0.0	-0.0	-0.0	126789.9375	21833.873046875	-7772.6982421875
0.0045000000000000005	-0.0	-0.0	-0.0	3.7465219497680655	32.68553161621094	-409.3851013183594	-5.01840353012085	-56.56382369995117	-488.8614501953125	-0.0	-0.0	-0.0	-0.0	-0.0	-0.0	126936.7890625	22118.025390625	-7904.17919921875
0.005	-0.0	-0.0	-0.0	3.479209899902344	32.7237663269043	-409.6376037597656	-5.436854362487793	-57.106231689453125	-489.3607482910156	-0.0	-0.0	-0.0	-0.0	-0.0	-0.0	126844.7890625	22195.005859375	-8129.2666015625
0.0055	-0.0	-0.0	-0.0	3.505371570587158	32.52070617675781	-410.3950805664063	-5.284657955169678	-57.64891815185547	-489.4111633300781	-0.0	-0.0	-0.0	-0.0	-0.0	-0.0	127044.4296875	22594.130859375	-8120.94189453125
0.006	-0.0	-0.0	-0.0	3.504067659378052	32.21406555175781	-409.7408752441406	-5.512884616851807	-58.51950073242188	-490.40869140625	-0.0	-0.0	-0.0	-0.0	-0.0	-0.0	127168.7734375	22689.8125	-8180.68115234375
0.006500000000000001	-0.0	-0.0	-0.0	3.310272693634033	31.830928802490234	-410.8008728027344	-5.867849826812744	-58.91056823730469	-491.2053833007813	-0.0	-0.0	-0.0	-0.0	-0.0	-0.0	127455.7265625	23177.05078125	-8363.384765625
0.007	-0.0	-0.0	-0.0	3.236011266708374	31.71698760986328	-411.5611267089844	-5.550972938537598	-59.60409927368164	-493.9464721679688	-0.0	-0.0	-0.0	-0.0	-0.0	-0.0	127599.2265625	23561.375	-8329.3994140625
0.0075	-0.0	-0.0	-0.0	3.3250961303710938	31.781747817993164	-410.031005859375	-5.881273746490479	-60.00802612304688	-493.8938903808594	-0.0	-0.0	-0.0	-0.0	-0.0	-0.0	127856.203125	23467.69140625	-8456.640625
0.008	-0.0	-0.0	-0.0	3.4687416553497314	31.98417091369629	-409.8923645019531	-6.070037364959717	-60.548946380615234	-495.5508728027344	-0.0	-0.0	-0.0	-0.0	-0.0	-0.0	127832.578125	23723.732421875	-8588.1552734375
0.0085	-0.0	-0.0	-0.0	3.6953284740448	31.57976722717285	-411.4546508789063	-6.182829856872559	-61.006229400634766	-495.7532043457031	-0.0	-0.0	-0.0	-0.0	-0.0	-0.0	127848.234375	24182.873046875	-8622.4638671875
